<svg version="1.1" id="Layer_1" xmlns="http://www.w3.org/2000/svg" xmlns:xlink="http://www.w3.org/1999/xlink" x="0px" y="0px"
	 width="100%" viewBox="0 0 300 300" enable-background="new 0 0 300 300" xml:space="preserve">
<path fill="#000000" opacity="1.000000" stroke="none" 
	d="
M1.000002,230.000000 
	C1.000000,153.709717 1.000000,77.419434 1.000000,1.064576 
	C100.900520,1.064576 200.801086,1.064576 301.000000,1.064576 
	C301.000000,83.020653 301.000000,165.041672 300.744446,247.858459 
	C297.875977,247.100143 295.392120,244.546921 292.624725,244.189575 
	C285.819092,243.310806 278.883057,243.442261 271.566589,243.099579 
	C264.841492,244.372986 262.559937,240.089386 259.880981,235.616577 
	C257.868805,232.257004 255.066208,227.481552 252.023880,226.988724 
	C243.499847,225.607895 234.669189,226.119797 225.570404,225.935257 
	C219.040970,226.810532 216.049347,229.935852 216.015076,235.726120 
	C215.990860,239.817490 216.110397,243.909729 216.096970,248.465698 
	C216.074234,256.287506 216.120285,263.645203 216.097183,271.466797 
	C216.017868,277.576691 215.984482,283.222839 216.004074,288.868744 
	C216.023819,294.556488 219.916321,298.849335 225.592773,298.951569 
	C233.390656,299.092041 241.194748,298.887970 249.460205,298.903442 
	C257.947784,298.927185 265.971344,298.879028 274.458923,298.902527 
	C279.383179,298.982269 283.857849,299.208862 288.298187,298.915497 
	C290.906525,298.743134 293.460236,297.743958 296.283997,297.058441 
	C296.691589,296.955078 296.853638,296.910004 297.286560,296.890686 
	C297.763550,296.628571 297.969666,296.340668 298.517059,295.858154 
	C299.572205,295.442352 300.286102,295.221191 301.000000,295.000000 
	C301.000000,296.996796 301.000000,298.993591 301.000000,300.992798 
	C201.000000,300.995178 101.000000,300.995178 1.000000,300.993042 
	C1.000000,299.326935 1.000000,297.662933 1.252964,295.159790 
	C4.247593,295.881500 6.913096,298.599091 9.745259,298.785522 
	C18.126770,299.337402 26.574080,298.889893 35.459324,298.907959 
	C44.613972,298.932953 53.304951,298.883209 62.458733,298.907593 
	C67.087822,298.987305 71.254486,298.959961 75.420280,299.007996 
	C79.307831,299.052826 82.337372,297.675964 84.444389,293.841949 
	C85.192642,292.081085 85.923981,290.526917 85.944267,288.963531 
	C86.026291,282.644928 85.889244,276.323517 85.906837,269.539642 
	C85.986748,264.114044 86.010223,259.151917 85.994499,254.189911 
	C85.976067,248.374481 82.910751,244.615448 77.083450,244.063766 
	C71.078880,243.495331 65.023369,243.464966 58.544586,243.126465 
	C50.848129,244.742218 46.824108,241.082031 44.326717,234.803970 
	C43.973560,233.916199 43.228260,233.189499 42.834515,232.311951 
	C40.423603,226.938599 35.590309,225.443207 30.443691,225.091644 
	C25.319962,224.741669 20.147045,225.111725 14.580347,225.095810 
	C12.732563,225.209229 11.172932,225.093231 9.893117,225.636459 
	C6.858160,226.924667 3.955902,228.525528 1.000002,230.000000 
M91.080681,3.032088 
	C88.103401,3.021912 84.944801,2.378475 82.195793,3.165572 
	C78.930023,4.100632 76.016457,6.265816 72.222336,7.989290 
	C70.484047,10.584906 67.610970,13.025325 67.230598,15.806650 
	C66.275528,22.790060 66.447517,29.927610 66.031593,37.931488 
	C66.077332,46.289948 66.123070,54.648411 66.032265,63.934483 
	C66.077599,74.623650 66.122932,85.312813 66.030006,96.929550 
	C66.076378,103.287689 66.122749,109.645836 66.030838,116.927429 
	C66.020889,120.592003 65.899994,124.260307 66.023438,127.920387 
	C66.305367,136.279846 72.193207,144.715851 79.297066,145.890350 
	C84.765907,146.794540 90.423210,146.558823 96.924576,146.973663 
	C103.949043,146.926285 110.973518,146.878922 118.925774,146.974243 
	C125.949806,146.927216 132.973846,146.880203 140.925873,146.975464 
	C149.283005,146.928329 157.640137,146.881210 166.925491,146.975311 
	C178.949036,146.926590 190.972565,146.877884 203.923111,146.971848 
	C208.044937,146.980881 212.167755,147.050644 216.288376,146.984497 
	C222.243195,146.888916 227.399429,144.996857 231.742035,139.738785 
	C232.140137,139.220825 232.608170,138.742325 232.925858,138.179001 
	C237.610855,129.871170 235.704346,120.824577 235.974380,111.076836 
	C235.928421,101.385345 235.882462,91.693863 235.974472,81.073792 
	C235.983047,74.269913 236.134766,67.462486 235.966370,60.662994 
	C235.718353,50.648071 229.265274,42.756401 221.168976,42.025959 
	C214.474304,41.421967 207.724548,41.428883 200.070496,41.030792 
	C192.712646,41.075924 185.354813,41.121056 177.070007,41.031818 
	C172.424179,41.020824 167.754150,41.278481 163.144730,40.863312 
	C161.363281,40.702858 159.023697,39.436882 158.128662,37.955433 
	C153.328354,30.010262 149.268616,21.598787 144.187042,13.850787 
	C141.825562,10.250158 138.167053,6.237620 134.323700,5.154795 
	C127.874115,3.337688 120.806564,3.713959 113.070671,3.031482 
	C106.046394,3.076663 99.022110,3.121845 91.080681,3.032088 
M37.025852,185.929626 
	C37.016376,191.914108 37.144077,197.903046 36.950523,203.881561 
	C36.815289,208.058716 39.625988,209.793869 42.703671,209.747223 
	C45.548817,209.704086 48.273994,207.873764 48.037041,203.960892 
	C47.816395,200.317261 47.888245,196.655930 48.019493,192.148544 
	C49.108597,191.766159 50.184368,191.104538 51.289211,191.051773 
	C55.186634,190.865662 59.094028,190.888245 63.925262,190.977005 
	C72.615013,190.929077 81.304771,190.881134 90.922585,190.978134 
	C99.613609,190.930344 108.304642,190.882553 117.923592,190.979767 
	C127.143669,190.979767 136.363754,190.979767 145.999039,190.979767 
	C145.999039,195.770218 146.220245,200.051743 145.931366,204.298569 
	C145.685669,207.910522 147.479706,209.903992 150.579712,209.807861 
	C153.437881,209.719223 156.152054,208.362579 156.035172,204.446655 
	C155.901932,199.983276 156.074615,195.510788 157.036682,191.010559 
	C166.356247,190.951431 175.675812,190.892303 185.923828,190.975037 
	C196.281708,190.926559 206.639603,190.878067 217.925400,190.972275 
	C225.283356,190.924866 232.641296,190.877457 240.921722,190.970825 
	C245.182327,190.970825 249.442932,190.970825 253.999039,190.970825 
	C253.999039,195.781494 254.130386,199.921509 253.961136,204.049179 
	C253.800262,207.972000 256.525726,209.699936 259.393250,209.765945 
	C262.285370,209.832504 265.056396,208.129486 265.014008,204.257019 
	C264.948425,198.268661 265.120209,192.275635 264.954041,186.291168 
	C264.842377,182.268784 262.898193,179.873688 258.449432,179.975372 
	C251.301849,180.138748 244.149872,180.109528 236.071045,180.025635 
	C228.045776,180.072037 220.020493,180.118439 211.067245,180.029037 
	C200.376587,180.074539 189.685944,180.120041 178.067307,180.029800 
	C170.838028,180.029800 163.608765,180.029800 155.976242,180.029800 
	C155.976242,175.177551 156.150162,170.896454 155.917099,166.637619 
	C155.752762,163.634781 153.818604,161.783157 150.745743,162.084229 
	C148.032776,162.350037 145.768127,163.375839 145.948135,166.973724 
	C146.162964,171.267365 145.972977,175.581268 145.030991,179.986069 
	C134.686020,180.046188 124.341057,180.106308 113.068085,180.029663 
	C103.377510,180.076019 93.686935,180.122375 83.068558,180.030212 
	C75.044922,180.076614 67.021294,180.123016 58.070709,180.028717 
	C53.092342,180.018661 48.113792,180.031464 43.135677,179.990707 
	C39.689789,179.962509 37.630268,181.513794 37.025852,185.929626 
M166.923935,298.978668 
	C172.536758,298.984985 178.167725,299.252838 183.753204,298.865173 
	C185.902267,298.716064 187.947769,297.074982 190.703278,295.800385 
	C191.802170,293.522461 193.686005,291.298187 193.846115,288.956055 
	C194.253326,282.999969 193.889404,276.991180 193.978287,270.076019 
	C193.985123,264.775421 194.071960,259.473328 193.974426,254.174637 
	C193.890717,249.626358 189.472641,244.329346 185.117081,244.065445 
	C176.769974,243.559677 168.398590,243.454697 159.250946,243.035034 
	C156.126740,243.674423 155.664825,241.154724 154.577484,239.223175 
	C150.847336,232.596893 147.901764,224.998489 138.361725,225.008118 
	C133.239716,225.013290 128.117798,225.109192 122.163910,225.025650 
	C116.352180,225.353561 110.541725,225.920441 108.741013,232.840576 
	C108.065720,235.435715 108.330650,238.275513 108.028069,241.931549 
	C108.074478,250.622101 108.120895,259.312653 108.026482,268.930725 
	C108.016815,275.583801 107.939880,282.237671 108.018929,288.889709 
	C108.081245,294.134430 112.794601,298.922913 118.054268,298.969910 
	C125.700661,299.038300 133.348999,298.889343 141.924286,298.978943 
	C149.948395,298.929901 157.972504,298.880859 166.923935,298.978668 
z"/>
<path fill="#F9B112" opacity="1.000000" stroke="none" 
	d="
M1.000002,230.458069 
	C3.955902,228.525528 6.858160,226.924667 9.893117,225.636459 
	C11.172932,225.093231 12.732563,225.209229 14.658381,225.420410 
	C17.433222,229.154770 19.714680,232.494293 21.539139,235.904114 
	C17.808121,235.974411 14.534103,235.974411 11.314682,235.974411 
	C11.314682,238.639038 11.314682,240.692108 11.314682,243.186890 
	C18.748526,243.186890 25.874298,243.186890 33.078484,243.510178 
	C35.436760,247.166702 37.716621,250.499939 39.532722,253.903656 
	C30.378506,253.927505 21.688055,253.880875 12.926905,253.498901 
	C8.904137,249.109055 4.952067,245.054535 0.999999,241.000000 
	C1.000000,237.638718 1.000000,234.277420 1.000002,230.458069 
z"/>
<path fill="#FBC10F" opacity="1.000000" stroke="none" 
	d="
M34.995655,298.833252 
	C26.574080,298.889893 18.126770,299.337402 9.745259,298.785522 
	C6.913096,298.599091 4.247593,295.881500 1.252964,294.660309 
	C1.000000,285.979095 1.000000,276.958221 1.341394,267.539124 
	C4.733312,269.095154 7.783834,271.049377 10.905268,273.465088 
	C10.984239,277.592102 11.117890,281.262939 10.961150,284.921387 
	C10.832698,287.919586 11.942813,289.132721 15.012534,289.048126 
	C19.669037,288.919830 24.334352,289.111359 29.020838,289.518677 
	C31.029053,292.858002 33.012356,295.845642 34.995655,298.833252 
z"/>
<path fill="#EF5D21" opacity="1.000000" stroke="none" 
	d="
M271.999451,243.167404 
	C278.883057,243.442261 285.819092,243.310806 292.624725,244.189575 
	C295.392120,244.546921 297.875977,247.100143 300.744446,248.327118 
	C301.000000,256.354218 301.000000,264.708466 300.663147,273.462280 
	C297.273346,271.908661 294.220337,269.955444 291.096771,267.543091 
	C291.017181,264.255768 290.843719,261.416016 291.041016,258.602295 
	C291.282837,255.154373 289.987244,253.781631 286.461731,253.943222 
	C282.317413,254.133148 278.153198,253.888840 273.992767,253.464966 
	C273.494019,251.747299 273.383850,249.944855 272.430695,249.136841 
	C270.048157,247.117065 270.667877,245.256836 271.999451,243.167404 
z"/>
<path fill="#FAB810" opacity="1.000000" stroke="none" 
	d="
M10.834358,273.003601 
	C7.783834,271.049377 4.733312,269.095154 1.341394,267.070465 
	C1.000000,258.645752 1.000000,250.291534 0.999999,241.468658 
	C4.952067,245.054535 8.904137,249.109055 12.497055,253.588669 
	C11.758732,255.272263 11.094796,256.520813 11.050475,257.791016 
	C10.873666,262.858215 10.889703,267.932159 10.834358,273.003601 
z"/>
<path fill="#F0641F" opacity="1.000000" stroke="none" 
	d="
M291.167297,268.002228 
	C294.220337,269.955444 297.273346,271.908661 300.663147,273.930969 
	C301.000000,280.687653 301.000000,287.375275 301.000000,294.531494 
	C300.286102,295.221191 299.572205,295.442352 298.302979,295.962494 
	C297.467590,296.418915 297.223602,296.620087 297.015686,296.864960 
	C296.853638,296.910004 296.691589,296.955078 296.257019,296.685120 
	C293.707977,293.758789 291.431427,291.147522 289.514771,288.285339 
	C290.249359,286.587555 290.898438,285.150146 290.949249,283.691956 
	C291.131439,278.465851 291.111084,273.232697 291.167297,268.002228 
z"/>
<path fill="#EC4225" opacity="1.000000" stroke="none" 
	d="
M113.999031,3.167326 
	C120.806564,3.713959 127.874115,3.337688 134.323700,5.154795 
	C138.167053,6.237620 141.825562,10.250158 144.187042,13.850787 
	C149.268616,21.598787 153.328354,30.010262 158.128662,37.955433 
	C159.023697,39.436882 161.363281,40.702858 163.144730,40.863312 
	C167.754150,41.278481 172.424179,41.020824 177.556549,41.456177 
	C180.361084,45.199242 182.679062,48.517948 184.532837,51.903877 
	C175.712341,51.925968 167.356049,51.880833 158.923004,51.511497 
	C154.859772,47.776730 150.873306,44.366161 146.810150,40.615524 
	C143.181305,34.296124 138.843506,28.632322 136.282089,22.255043 
	C133.293320,14.813819 127.829964,13.137032 120.921371,12.509106 
	C118.562546,9.179191 116.280792,6.173258 113.999031,3.167326 
z"/>
<path fill="#F0651F" opacity="1.000000" stroke="none" 
	d="
M271.566589,243.099579 
	C270.667877,245.256836 270.048157,247.117065 272.430695,249.136841 
	C273.383850,249.944855 273.494019,251.747299 273.528625,253.533386 
	C265.045410,253.924072 257.021484,253.878479 248.975586,253.481384 
	C247.915634,251.534637 247.125183,249.678299 245.782135,248.404709 
	C243.719757,246.448959 241.277435,244.893845 239.451431,243.097443 
	C243.507416,243.026138 247.108322,243.026138 251.175827,243.026138 
	C249.538956,238.328568 247.800720,235.230789 242.446274,235.899628 
	C238.691254,236.368668 234.817703,235.888687 230.925507,235.495178 
	C229.222458,232.066879 227.590988,228.975906 225.959518,225.884949 
	C234.669189,226.119797 243.499847,225.607895 252.023880,226.988724 
	C255.066208,227.481552 257.868805,232.257004 259.880981,235.616577 
	C262.559937,240.089386 264.841492,244.372986 271.566589,243.099579 
z"/>
<path fill="#EF5A21" opacity="1.000000" stroke="none" 
	d="
M66.167542,37.003349 
	C66.447517,29.927610 66.275528,22.790060 67.230598,15.806650 
	C67.610970,13.025325 70.484047,10.584906 72.761887,8.240697 
	C75.212723,11.033316 77.123993,13.574527 78.863434,16.464344 
	C77.888275,24.721071 77.084938,32.629196 76.217743,41.165962 
	C85.737144,41.165962 93.866730,41.165962 102.019653,41.516495 
	C102.993668,43.376129 103.974762,44.867107 104.887062,46.399055 
	C105.954849,48.192123 106.962708,50.020882 107.532463,51.901875 
	C98.044304,51.923916 89.020241,51.878239 79.991440,51.464592 
	C77.479012,44.341000 72.634674,39.876560 66.167542,37.003349 
z"/>
<path fill="#F48619" opacity="1.000000" stroke="none" 
	d="
M122.995850,225.164154 
	C128.117798,225.109192 133.239716,225.013290 138.361725,225.008118 
	C147.901764,224.998489 150.847336,232.596893 154.577484,239.223175 
	C155.664825,241.154724 156.126740,243.674423 159.955002,243.294327 
	C166.749084,244.431641 170.168961,248.254715 171.533127,253.902649 
	C163.045212,253.925430 155.021255,253.878967 146.919128,253.504410 
	C144.560471,249.844543 142.279999,246.512756 140.361740,243.106995 
	C141.692062,242.966125 142.660187,242.899231 143.254105,242.858200 
	C142.055313,235.893509 137.116684,235.342087 131.469543,235.976151 
	C130.331604,236.103928 129.155380,235.890701 127.975128,235.476440 
	C126.300926,231.800186 124.648384,228.482162 122.995850,225.164154 
z"/>
<path fill="#F8A813" opacity="1.000000" stroke="none" 
	d="
M39.996490,253.833176 
	C37.716621,250.499939 35.436760,247.166702 33.454857,243.433136 
	C34.471077,242.619400 35.189339,242.205978 35.907600,241.792557 
	C33.757069,239.405548 33.424648,234.866806 28.381531,235.924149 
	C26.348736,236.350342 24.130163,235.890442 21.996138,235.833801 
	C19.714680,232.494293 17.433222,229.154770 15.073730,225.490662 
	C20.147045,225.111725 25.319962,224.741669 30.443691,225.091644 
	C35.590309,225.443207 40.423603,226.938599 42.834515,232.311951 
	C43.228260,233.189499 43.973560,233.916199 44.326717,234.803970 
	C46.824108,241.082031 50.848129,244.742218 58.569115,243.475021 
	C59.994591,245.399139 60.983643,246.881882 61.896584,248.410095 
	C62.964432,250.197601 63.965946,252.024750 64.532448,253.904724 
	C56.044601,253.927551 48.020546,253.880371 39.996490,253.833176 
z"/>
<path fill="#E93328" opacity="1.000000" stroke="none" 
	d="
M200.999191,41.165115 
	C207.724548,41.428883 214.474304,41.421967 221.168976,42.025959 
	C229.265274,42.756401 235.718353,50.648071 235.966370,60.662994 
	C236.134766,67.462486 235.983047,74.269913 235.555634,81.515228 
	C231.813797,79.638527 228.490814,77.320381 225.098236,74.538971 
	C225.017838,69.610748 225.129730,65.141266 224.965240,60.681973 
	C224.757828,55.059418 221.527573,52.070450 215.934341,51.995277 
	C213.622391,51.964211 211.311066,51.886822 208.892044,51.524910 
	C206.189484,47.867916 203.594330,44.516518 200.999191,41.165115 
z"/>
<path fill="#F2791C" opacity="1.000000" stroke="none" 
	d="
M156.114349,191.042252 
	C156.074615,195.510788 155.901932,199.983276 156.035172,204.446655 
	C156.152054,208.362579 153.437881,209.719223 150.579712,209.807861 
	C147.479706,209.903992 145.685669,207.910522 145.931366,204.298569 
	C146.220245,200.051743 145.999039,195.770218 145.999039,190.979767 
	C136.363754,190.979767 127.143669,190.979767 117.523758,190.582855 
	C116.859535,188.726257 116.749222,187.216309 116.293396,185.819092 
	C115.664154,183.890335 114.774315,182.046585 113.996094,180.166428 
	C124.341057,180.106308 134.686020,180.046188 145.522568,180.305267 
	C149.380890,184.097061 152.747620,187.569656 156.114349,191.042252 
z"/>
<path fill="#F58E18" opacity="1.000000" stroke="none" 
	d="
M122.579880,225.094910 
	C124.648384,228.482162 126.300926,231.800186 127.523895,235.545761 
	C124.498413,235.973328 121.902481,235.973328 119.342072,235.973328 
	C119.342072,238.633072 119.342072,240.684479 119.342072,243.180969 
	C126.437828,243.180969 133.218674,243.180969 139.999527,243.180969 
	C142.279999,246.512756 144.560471,249.844543 146.455139,253.573853 
	C137.377823,253.925217 128.686310,253.879028 119.973656,253.482605 
	C116.023964,249.089508 112.095436,245.046631 108.166908,241.003769 
	C108.330650,238.275513 108.065720,235.435715 108.741013,232.840576 
	C110.541725,225.920441 116.352180,225.353561 122.579880,225.094910 
z"/>
<path fill="#F16F1D" opacity="1.000000" stroke="none" 
	d="
M156.575516,191.026398 
	C152.747620,187.569656 149.380890,184.097061 145.986252,180.255432 
	C145.972977,175.581268 146.162964,171.267365 145.948135,166.973724 
	C145.768127,163.375839 148.032776,162.350037 150.745743,162.084229 
	C153.818604,161.783157 155.752762,163.634781 155.917099,166.637619 
	C156.150162,170.896454 155.976242,175.177551 155.976242,180.029800 
	C163.608765,180.029800 170.838028,180.029800 178.609955,180.423401 
	C181.100204,184.155746 183.047791,187.494461 184.995377,190.833191 
	C175.675812,190.892303 166.356247,190.951431 156.575516,191.026398 
z"/>
<path fill="#EE5422" opacity="1.000000" stroke="none" 
	d="
M236.999756,180.161697 
	C244.149872,180.109528 251.301849,180.138748 258.449432,179.975372 
	C262.898193,179.873688 264.842377,182.268784 264.954041,186.291168 
	C265.120209,192.275635 264.948425,198.268661 265.014008,204.257019 
	C265.056396,208.129486 262.285370,209.832504 259.393250,209.765945 
	C256.525726,209.699936 253.800262,207.972000 253.961136,204.049179 
	C254.130386,199.921509 253.999039,195.781494 253.999039,190.970825 
	C249.442932,190.970825 245.182327,190.970825 240.524017,190.575989 
	C239.728394,188.596100 239.403564,186.988037 238.913315,185.432098 
	C238.352142,183.651138 237.644028,181.916473 236.999756,180.161697 
z"/>
<path fill="#F16E1E" opacity="1.000000" stroke="none" 
	d="
M225.570404,225.935257 
	C227.590988,228.975906 229.222458,232.066879 230.492325,235.563751 
	C228.867599,235.969650 227.604462,235.969650 226.316498,235.969650 
	C226.316498,238.596939 226.316498,240.650864 226.316498,243.168732 
	C230.750320,243.168732 234.873337,243.168732 238.996353,243.168732 
	C241.277435,244.893845 243.719757,246.448959 245.782135,248.404709 
	C247.125183,249.678299 247.915634,251.534637 248.511505,253.549927 
	C240.751053,253.993896 233.432770,254.017853 225.770355,253.969498 
	C222.339417,251.931992 219.252594,249.966782 216.165771,248.001572 
	C216.110397,243.909729 215.990860,239.817490 216.015076,235.726120 
	C216.049347,229.935852 219.040970,226.810532 225.570404,225.935257 
z"/>
<path fill="#F79F15" opacity="1.000000" stroke="none" 
	d="
M140.996506,298.833069 
	C133.348999,298.889343 125.700661,299.038300 118.054268,298.969910 
	C112.794601,298.922913 108.081245,294.134430 108.018929,288.889709 
	C107.939880,282.237671 108.016815,275.583801 108.447449,268.488770 
	C110.326698,268.945984 111.774620,269.862488 113.245872,270.739868 
	C115.102150,271.846863 116.977478,272.921936 118.913689,274.455688 
	C118.937111,277.602661 118.891434,280.304688 118.669556,283.262634 
	C118.610428,284.675293 118.727516,285.832062 119.034966,287.356384 
	C123.815971,288.205231 128.406616,288.686523 133.076630,289.492249 
	C135.769501,292.822113 138.382996,295.827606 140.996506,298.833069 
z"/>
<path fill="#F37C1B" opacity="1.000000" stroke="none" 
	d="
M248.996170,298.831512 
	C241.194748,298.887970 233.390656,299.092041 225.592773,298.951569 
	C219.916321,298.849335 216.023819,294.556488 216.004074,288.868744 
	C215.984482,283.222839 216.017868,277.576691 216.431641,271.536987 
	C219.834564,273.096069 222.833862,275.048828 225.902283,277.455994 
	C225.981049,280.075562 226.149094,282.254333 225.964203,284.402710 
	C225.667633,287.848358 226.970078,289.246796 230.517899,289.058563 
	C234.331436,288.856262 238.169296,289.112610 242.074615,289.492615 
	C244.433838,292.821442 246.714996,295.826477 248.996170,298.831512 
z"/>
<path fill="#F37C1B" opacity="1.000000" stroke="none" 
	d="
M95.996712,146.829971 
	C90.423210,146.558823 84.765907,146.794540 79.297066,145.890350 
	C72.193207,144.715851 66.305367,136.279846 66.023438,127.920387 
	C65.899994,124.260307 66.020889,120.592003 66.423782,116.542053 
	C70.154900,118.772209 73.493065,121.387756 76.900116,124.427193 
	C77.286797,127.029518 77.233032,129.348785 77.994934,131.358871 
	C79.956970,136.535202 84.771027,135.813629 89.105240,136.480301 
	C91.551605,140.082306 96.490768,141.621597 95.996712,146.829971 
z"/>
<path fill="#F37E1A" opacity="1.000000" stroke="none" 
	d="
M171.997086,253.833405 
	C170.168961,248.254715 166.749084,244.431641 160.348175,243.368530 
	C168.398590,243.454697 176.769974,243.559677 185.117081,244.065445 
	C189.472641,244.329346 193.890717,249.626358 193.974426,254.174637 
	C194.071960,259.473328 193.985123,264.775421 193.582245,270.462097 
	C189.845825,267.899872 186.505478,264.951569 183.093048,261.567688 
	C182.957901,254.030106 182.957855,254.037750 175.880020,253.995728 
	C174.585434,253.988052 173.291382,253.889832 171.997086,253.833405 
z"/>
<path fill="#EF5D21" opacity="1.000000" stroke="none" 
	d="
M202.996109,146.829178 
	C190.972565,146.877884 178.949036,146.926590 166.460968,146.518661 
	C164.663620,142.764572 163.330780,139.467133 162.462021,136.098862 
	C172.948837,136.074982 182.971603,136.121933 193.077362,136.490372 
	C196.438934,140.150986 199.717514,143.490082 202.996109,146.829178 
z"/>
<path fill="#F6A014" opacity="1.000000" stroke="none" 
	d="
M64.996239,253.834702 
	C63.965946,252.024750 62.964432,250.197601 61.896584,248.410095 
	C60.983643,246.881882 59.994591,245.399139 59.014679,243.547729 
	C65.023369,243.464966 71.078880,243.495331 77.083450,244.063766 
	C82.910751,244.615448 85.976067,248.374481 85.994499,254.189911 
	C86.010223,259.151917 85.986748,264.114044 85.582016,269.461792 
	C82.177414,267.899872 79.171410,265.952301 76.091827,263.558228 
	C75.829872,252.912704 77.391266,254.045181 66.935616,253.995270 
	C66.288918,253.992172 65.642685,253.890503 64.996239,253.834702 
z"/>
<path fill="#F0641F" opacity="1.000000" stroke="none" 
	d="
M185.459595,190.904114 
	C183.047791,187.494461 181.100204,184.155746 179.073944,180.491287 
	C189.685944,180.120041 200.376587,180.074539 211.537781,180.465683 
	C212.697067,182.456253 213.324036,184.041458 214.090652,185.555969 
	C214.996597,187.345734 216.023193,189.074417 216.997482,190.829590 
	C206.639603,190.878067 196.281708,190.926559 185.459595,190.904114 
z"/>
<path fill="#EB3D26" opacity="1.000000" stroke="none" 
	d="
M225.167831,75.002228 
	C228.490814,77.320381 231.813797,79.638527 235.486633,81.979523 
	C235.882462,91.693863 235.928421,101.385345 235.535782,111.534775 
	C233.543198,111.304092 231.957932,110.677261 230.443329,109.910828 
	C228.653549,109.005142 226.924805,107.978851 225.099518,106.540375 
	C225.075577,95.718010 225.121704,85.360123 225.167831,75.002228 
z"/>
<path fill="#ED5123" opacity="1.000000" stroke="none" 
	d="
M203.459610,146.900513 
	C199.717514,143.490082 196.438934,140.150986 193.541748,136.419327 
	C201.028442,136.018219 208.167404,136.408432 215.223206,135.813095 
	C218.222076,135.560059 221.046768,133.242569 224.023865,132.206970 
	C226.431686,135.049133 228.766281,137.547607 231.100861,140.046097 
	C227.399429,144.996857 222.243195,146.888916 216.288376,146.984497 
	C212.167755,147.050644 208.044937,146.980881 203.459610,146.900513 
z"/>
<path fill="#F16E1E" opacity="1.000000" stroke="none" 
	d="
M66.168274,96.001976 
	C66.122932,85.312813 66.077599,74.623650 66.406487,63.576077 
	C70.130508,66.480148 73.480301,69.742622 76.898460,73.468956 
	C76.921944,82.956291 76.877068,91.979774 76.507942,100.925079 
	C74.817535,99.760361 73.587914,98.381546 72.049820,97.663033 
	C70.228180,96.812065 68.140594,96.530396 66.168274,96.001976 
z"/>
<path fill="#F4841A" opacity="1.000000" stroke="none" 
	d="
M113.532089,180.098053 
	C114.774315,182.046585 115.664154,183.890335 116.293396,185.819092 
	C116.749222,187.216309 116.859535,188.726257 117.059799,190.510345 
	C108.304642,190.882553 99.613609,190.930344 90.381973,190.579819 
	C87.893036,186.843903 85.944702,183.506302 83.996368,180.168732 
	C93.686935,180.122375 103.377510,180.076019 113.532089,180.098053 
z"/>
<path fill="#F0641F" opacity="1.000000" stroke="none" 
	d="
M76.830101,73.005096 
	C73.480301,69.742622 70.130508,66.480148 66.474754,63.112270 
	C66.123070,54.648411 66.077332,46.289948 66.099571,37.467419 
	C72.634674,39.876560 77.479012,44.341000 79.558258,51.536407 
	C78.419601,53.098034 77.145294,54.194771 77.094048,55.345955 
	C76.832352,61.224602 76.886459,67.117310 76.830101,73.005096 
z"/>
<path fill="#EC4924" opacity="1.000000" stroke="none" 
	d="
M231.421448,139.892441 
	C228.766281,137.547607 226.431686,135.049133 224.070374,131.792297 
	C224.363113,129.297394 224.915085,127.566849 224.960220,125.823181 
	C225.122543,119.552795 225.113739,113.277985 225.169601,107.004845 
	C226.924805,107.978851 228.653549,109.005142 230.443329,109.910828 
	C231.957932,110.677261 233.543198,111.304092 235.465820,111.999161 
	C235.704346,120.824577 237.610855,129.871170 232.925858,138.179001 
	C232.608170,138.742325 232.140137,139.220825 231.421448,139.892441 
z"/>
<path fill="#F0651F" opacity="1.000000" stroke="none" 
	d="
M161.997955,136.169693 
	C163.330780,139.467133 164.663620,142.764572 165.996857,146.448059 
	C157.640137,146.881210 149.283005,146.928329 140.440079,146.547455 
	C137.969055,142.802628 135.983826,139.485825 134.462463,136.097534 
	C143.950211,136.073944 152.974091,136.121811 161.997955,136.169693 
z"/>
<path fill="#F79717" opacity="1.000000" stroke="none" 
	d="
M118.844589,274.010803 
	C116.977478,272.921936 115.102150,271.846863 113.245872,270.739868 
	C111.774620,269.862488 110.326698,268.945984 108.517860,268.025024 
	C108.120895,259.312653 108.074478,250.622101 108.097488,241.467651 
	C112.095436,245.046631 116.023964,249.089508 119.605354,253.729095 
	C119.120338,260.887482 118.982468,267.449158 118.844589,274.010803 
z"/>
<path fill="#F58E18" opacity="1.000000" stroke="none" 
	d="
M83.532463,180.099457 
	C85.944702,183.506302 87.893036,186.843903 89.917946,190.507355 
	C81.304771,190.881134 72.615013,190.929077 63.456245,190.533020 
	C61.657368,186.782501 60.327511,183.475952 58.997658,180.169434 
	C67.021294,180.123016 75.044922,180.076614 83.532463,180.099457 
z"/>
<path fill="#F48619" opacity="1.000000" stroke="none" 
	d="
M183.165115,262.003265 
	C186.505478,264.951569 189.845825,267.899872 193.510162,270.925842 
	C193.889404,276.991180 194.253326,282.999969 193.846115,288.956055 
	C193.686005,291.298187 191.802170,293.522461 190.300140,295.614441 
	C187.559311,292.938782 185.221634,290.449097 182.931931,287.495544 
	C183.041641,278.688843 183.103378,270.346069 183.165115,262.003265 
z"/>
<path fill="#EF5A21" opacity="1.000000" stroke="none" 
	d="
M217.461441,190.900940 
	C216.023193,189.074417 214.996597,187.345734 214.090652,185.555969 
	C213.324036,184.041458 212.697067,182.456253 212.001770,180.533585 
	C220.020493,180.118439 228.045776,180.072037 236.535400,180.093658 
	C237.644028,181.916473 238.352142,183.651138 238.913315,185.432098 
	C239.403564,186.988037 239.728394,188.596100 240.062775,190.505585 
	C232.641296,190.877457 225.283356,190.924866 217.461441,190.900940 
z"/>
<path fill="#FAB810" opacity="1.000000" stroke="none" 
	d="
M35.459324,298.907959 
	C33.012356,295.845642 31.029053,292.858002 29.484509,289.443909 
	C38.280941,289.067383 46.638615,289.117340 55.074402,289.491150 
	C57.433655,292.821167 59.714790,295.827332 61.995930,298.833496 
	C53.304951,298.883209 44.613972,298.932953 35.459324,298.907959 
z"/>
<path fill="#EA3927" opacity="1.000000" stroke="none" 
	d="
M200.534851,41.097954 
	C203.594330,44.516518 206.189484,47.867916 208.427643,51.592438 
	C200.379456,51.922588 192.688263,51.879620 184.997055,51.836655 
	C182.679062,48.517948 180.361084,45.199242 178.020020,41.523361 
	C185.354813,41.121056 192.712646,41.075924 200.534851,41.097954 
z"/>
<path fill="#F58E18" opacity="1.000000" stroke="none" 
	d="
M182.883957,287.959412 
	C185.221634,290.449097 187.559311,292.938782 189.968719,295.771088 
	C187.947769,297.074982 185.902267,298.716064 183.753204,298.865173 
	C178.167725,299.252838 172.536758,298.984985 166.384018,298.581421 
	C163.561600,295.178680 161.279083,292.173187 159.460342,289.094452 
	C163.389053,289.014191 166.860397,289.137085 170.317307,288.966858 
	C174.512558,288.760284 178.695618,288.306335 182.883957,287.959412 
z"/>
<path fill="#F2751C" opacity="1.000000" stroke="none" 
	d="
M249.460205,298.903442 
	C246.714996,295.826477 244.433838,292.821442 242.538666,289.420685 
	C251.281784,289.073517 259.638885,289.122101 268.074585,289.495422 
	C270.100372,292.823700 272.047638,295.827301 273.994904,298.830872 
	C265.971344,298.879028 257.947784,298.927185 249.460205,298.903442 
z"/>
<path fill="#F79717" opacity="1.000000" stroke="none" 
	d="
M158.996582,289.167725 
	C161.279083,292.173187 163.561600,295.178680 165.920349,298.507996 
	C157.972504,298.880859 149.948395,298.929901 141.460388,298.906006 
	C138.382996,295.827606 135.769501,292.822113 133.540451,289.419159 
	C142.282120,289.070343 150.639359,289.119019 158.996582,289.167725 
z"/>
<path fill="#F2751C" opacity="1.000000" stroke="none" 
	d="
M66.099136,96.465759 
	C68.140594,96.530396 70.228180,96.812065 72.049820,97.663033 
	C73.587914,98.381546 74.817535,99.760361 76.576828,101.389023 
	C76.923729,109.288521 76.877480,116.645905 76.831238,124.003296 
	C73.493065,121.387756 70.154900,118.772209 66.492920,116.080322 
	C66.122749,109.645836 66.076378,103.287689 66.099136,96.465759 
z"/>
<path fill="#F16E1E" opacity="1.000000" stroke="none" 
	d="
M133.998596,136.169006 
	C135.983826,139.485825 137.969055,142.802628 139.976074,146.476318 
	C132.973846,146.880203 125.949806,146.927216 118.439819,146.545807 
	C115.635109,142.802002 113.316360,139.486633 111.461525,136.099426 
	C119.283150,136.074722 126.640877,136.121857 133.998596,136.169006 
z"/>
<path fill="#F8A813" opacity="1.000000" stroke="none" 
	d="
M76.165405,264.004730 
	C79.171410,265.952301 82.177414,267.899872 85.508240,269.925293 
	C85.889244,276.323517 86.026291,282.644928 85.944267,288.963531 
	C85.923981,290.526917 85.192642,292.081085 84.150703,293.671173 
	C80.970947,291.787140 78.428642,289.871460 75.933685,287.492065 
	C76.042488,279.353790 76.103951,271.679260 76.165405,264.004730 
z"/>
<path fill="#F2751C" opacity="1.000000" stroke="none" 
	d="
M110.997620,136.171265 
	C113.316360,139.486633 115.635109,142.802002 117.975922,146.474457 
	C110.973518,146.878922 103.949043,146.926285 96.460648,146.901825 
	C96.490768,141.621597 91.551605,140.082306 89.569138,136.407715 
	C96.948700,136.076599 103.973152,136.123932 110.997620,136.171265 
z"/>
<path fill="#F69417" opacity="1.000000" stroke="none" 
	d="
M58.534184,180.099060 
	C60.327511,183.475952 61.657368,186.782501 62.992432,190.460358 
	C59.094028,190.888245 55.186634,190.865662 51.289211,191.051773 
	C50.184368,191.104538 49.108597,191.766159 47.575104,192.551147 
	C45.901100,192.019363 44.649933,191.111755 43.446621,190.144623 
	C41.337688,188.449631 39.258118,186.718124 37.166245,185.001923 
	C37.630268,181.513794 39.689789,179.962509 43.135677,179.990707 
	C48.113792,180.031464 53.092342,180.018661 58.534184,180.099060 
z"/>
<path fill="#F9B112" opacity="1.000000" stroke="none" 
	d="
M75.886337,287.955811 
	C78.428642,289.871460 80.970947,291.787140 83.806938,293.873627 
	C82.337372,297.675964 79.307831,299.052826 75.420280,299.007996 
	C71.254486,298.959961 67.087822,298.987305 62.458733,298.907623 
	C59.714790,295.827332 57.433655,292.821167 55.537766,289.416931 
	C62.577454,288.664490 69.231895,288.310150 75.886337,287.955811 
z"/>
<path fill="#F2751C" opacity="1.000000" stroke="none" 
	d="
M225.833160,277.001587 
	C222.833862,275.048828 219.834564,273.096069 216.500809,271.073120 
	C216.120285,263.645203 216.074234,256.287506 216.096954,248.465698 
	C219.252594,249.966782 222.339417,251.931992 225.720963,254.433136 
	C225.954834,262.313232 225.893997,269.657410 225.833160,277.001587 
z"/>
<path fill="#F16E1E" opacity="1.000000" stroke="none" 
	d="
M274.458923,298.902527 
	C272.047638,295.827301 270.100372,292.823700 268.538574,289.423645 
	C275.667664,288.863556 282.411255,288.699890 289.154877,288.536224 
	C291.431427,291.147522 293.707977,293.758789 296.011536,296.743408 
	C293.460236,297.743958 290.906525,298.743134 288.298187,298.915497 
	C283.857849,299.208862 279.383179,298.982269 274.458923,298.902527 
z"/>
<path fill="#EC4924" opacity="1.000000" stroke="none" 
	d="
M113.534851,3.099404 
	C116.280792,6.173258 118.562546,9.179191 120.457199,12.576948 
	C113.045822,12.923269 106.021538,12.877765 98.920319,12.508341 
	C96.561531,9.178623 94.279686,6.172825 91.997833,3.167027 
	C99.022110,3.121845 106.046394,3.076663 113.534851,3.099404 
z"/>
<path fill="#F79B16" opacity="1.000000" stroke="none" 
	d="
M37.096050,185.465775 
	C39.258118,186.718124 41.337688,188.449631 43.446621,190.144623 
	C44.649933,191.111755 45.901100,192.019363 47.481026,192.978073 
	C47.888245,196.655930 47.816395,200.317261 48.037041,203.960892 
	C48.273994,207.873764 45.548817,209.704086 42.703671,209.747223 
	C39.625988,209.793869 36.815289,208.058716 36.950523,203.881561 
	C37.144077,197.903046 37.016376,191.914108 37.096050,185.465775 
z"/>
<path fill="#ED5123" opacity="1.000000" stroke="none" 
	d="
M91.539261,3.099557 
	C94.279686,6.172825 96.561531,9.178623 98.459763,12.575883 
	C91.592133,13.187914 84.858696,11.900027 79.035271,16.115740 
	C77.123993,13.574527 75.212723,11.033316 73.125854,8.195024 
	C76.016457,6.265816 78.930023,4.100632 82.195793,3.165572 
	C84.944801,2.378475 88.103401,3.021912 91.539261,3.099557 
z"/>
<path fill="#F16E1E" opacity="1.000000" stroke="none" 
	d="
M297.286560,296.890686 
	C297.223602,296.620087 297.467590,296.418915 297.961731,296.157104 
	C297.969666,296.340668 297.763550,296.628571 297.286560,296.890686 
z"/>
<path fill="#000000" opacity="1.000000" stroke="none" 
	d="
M75.933685,287.492065 
	C69.231895,288.310150 62.577454,288.664490 55.459648,289.093079 
	C46.638615,289.117340 38.280941,289.067383 29.459595,289.092224 
	C24.334352,289.111359 19.669037,288.919830 15.012534,289.048126 
	C11.942813,289.132721 10.832698,287.919586 10.961150,284.921387 
	C11.117890,281.262939 10.984239,277.592102 10.905268,273.465088 
	C10.889703,267.932159 10.873666,262.858215 11.050475,257.791016 
	C11.094796,256.520813 11.758732,255.272263 12.567753,253.924011 
	C21.688055,253.880875 30.378506,253.927505 39.532722,253.903656 
	C48.020546,253.880371 56.044601,253.927551 64.532448,253.904724 
	C65.642685,253.890503 66.288918,253.992172 66.935616,253.995270 
	C77.391266,254.045181 75.829872,252.912704 76.091827,263.558228 
	C76.103951,271.679260 76.042488,279.353790 75.933685,287.492065 
z"/>
<path fill="#000000" opacity="1.000000" stroke="none" 
	d="
M21.539139,235.904114 
	C24.130163,235.890442 26.348736,236.350342 28.381531,235.924149 
	C33.424648,234.866806 33.757069,239.405548 35.907600,241.792557 
	C35.189339,242.205978 34.471077,242.619400 33.376442,243.109863 
	C25.874298,243.186890 18.748526,243.186890 11.314682,243.186890 
	C11.314682,240.692108 11.314682,238.639038 11.314682,235.974411 
	C14.534103,235.974411 17.808121,235.974411 21.539139,235.904114 
z"/>
<path fill="#000000" opacity="1.000000" stroke="none" 
	d="
M289.514771,288.285339 
	C282.411255,288.699890 275.667664,288.863556 268.460022,289.098938 
	C259.638885,289.122101 251.281784,289.073517 242.460602,289.096893 
	C238.169296,289.112610 234.331436,288.856262 230.517899,289.058563 
	C226.970078,289.246796 225.667633,287.848358 225.964203,284.402710 
	C226.149094,282.254333 225.981049,280.075562 225.902283,277.455994 
	C225.893997,269.657410 225.954834,262.313232 226.065063,254.505432 
	C233.432770,254.017853 240.751053,253.993896 248.533447,253.901398 
	C257.021484,253.878479 265.045410,253.924072 273.533508,253.901276 
	C278.153198,253.888840 282.317413,254.133148 286.461731,253.943222 
	C289.987244,253.781631 291.282837,255.154373 291.041016,258.602295 
	C290.843719,261.416016 291.017181,264.255768 291.096741,267.543091 
	C291.111084,273.232697 291.131439,278.465851 290.949249,283.691956 
	C290.898438,285.150146 290.249359,286.587555 289.514771,288.285339 
z"/>
<path fill="#000000" opacity="1.000000" stroke="none" 
	d="
M111.461517,136.099426 
	C103.973152,136.123932 96.948700,136.076599 89.460342,136.101868 
	C84.771027,135.813629 79.956970,136.535202 77.994934,131.358871 
	C77.233032,129.348785 77.286797,127.029518 76.900116,124.427193 
	C76.877480,116.645905 76.923729,109.288521 76.901077,101.467194 
	C76.877068,91.979774 76.921944,82.956291 76.898460,73.468956 
	C76.886459,67.117310 76.832352,61.224602 77.094048,55.345955 
	C77.145294,54.194771 78.419601,53.098034 79.562988,51.904373 
	C89.020241,51.878239 98.044304,51.923916 107.996689,51.972229 
	C116.949509,51.928310 124.974007,51.881752 133.462631,51.905048 
	C142.284424,51.928501 150.642090,51.882095 158.999756,51.835693 
	C167.356049,51.880833 175.712341,51.925968 184.532837,51.903877 
	C192.688263,51.879620 200.379456,51.922588 208.535065,51.898029 
	C211.311066,51.886822 213.622391,51.964211 215.934341,51.995277 
	C221.527573,52.070450 224.757828,55.059418 224.965240,60.681973 
	C225.129730,65.141266 225.017838,69.610748 225.098236,74.538971 
	C225.121704,85.360123 225.075577,95.718010 225.099518,106.540375 
	C225.113739,113.277985 225.122543,119.552795 224.960220,125.823181 
	C224.915085,127.566849 224.363113,129.297394 223.997131,131.448624 
	C221.046768,133.242569 218.222076,135.560059 215.223206,135.813095 
	C208.167404,136.408432 201.028442,136.018219 193.458740,136.097824 
	C182.971603,136.121933 172.948837,136.074982 162.462021,136.098862 
	C152.974091,136.121811 143.950211,136.073944 134.462463,136.097534 
	C126.640877,136.121857 119.283150,136.074722 111.461517,136.099426 
z"/>
<path fill="#000000" opacity="1.000000" stroke="none" 
	d="
M78.863434,16.464344 
	C84.858696,11.900027 91.592133,13.187914 98.536705,12.899801 
	C106.021538,12.877765 113.045822,12.923269 120.534271,12.900932 
	C127.829964,13.137032 133.293320,14.813819 136.282089,22.255043 
	C138.843506,28.632322 143.181305,34.296124 146.349518,40.634399 
	C139.976608,41.051014 133.987686,41.108696 127.534447,41.098808 
	C118.712189,41.076145 110.354248,41.121052 101.996307,41.165962 
	C93.866730,41.165962 85.737144,41.165962 76.217743,41.165962 
	C77.084938,32.629196 77.888275,24.721071 78.863434,16.464344 
z"/>
<path fill="#EC4924" opacity="1.000000" stroke="none" 
	d="
M127.998764,41.166374 
	C133.987686,41.108696 139.976608,41.051014 146.426178,40.974461 
	C150.873306,44.366161 154.859772,47.776730 158.923004,51.511497 
	C150.642090,51.882095 142.284424,51.928501 133.457672,51.536289 
	C132.300629,49.543140 131.675110,47.957008 130.908524,46.442268 
	C130.002213,44.651440 128.974091,42.922272 127.998764,41.166374 
z"/>
<path fill="#000000" opacity="1.000000" stroke="none" 
	d="
M239.451431,243.097443 
	C234.873337,243.168732 230.750320,243.168732 226.316498,243.168732 
	C226.316498,240.650864 226.316498,238.596939 226.316498,235.969650 
	C227.604462,235.969650 228.867599,235.969650 230.563904,235.901093 
	C234.817703,235.888687 238.691254,236.368668 242.446274,235.899628 
	C247.800720,235.230789 249.538956,238.328568 251.175827,243.026138 
	C247.108322,243.026138 243.507416,243.026138 239.451431,243.097443 
z"/>
<path fill="#ED5123" opacity="1.000000" stroke="none" 
	d="
M127.534447,41.098808 
	C128.974091,42.922272 130.002213,44.651440 130.908524,46.442268 
	C131.675110,47.957008 132.300629,49.543140 132.993546,51.466434 
	C124.974007,51.881752 116.949509,51.928310 108.460785,51.904510 
	C106.962708,50.020882 105.954849,48.192123 104.887062,46.399055 
	C103.974762,44.867107 102.993668,43.376129 102.019653,41.516495 
	C110.354248,41.121052 118.712189,41.076145 127.534447,41.098808 
z"/>
<path fill="#000000" opacity="1.000000" stroke="none" 
	d="
M159.460342,289.094452 
	C150.639359,289.119019 142.282120,289.070343 133.461075,289.094727 
	C128.406616,288.686523 123.815971,288.205231 119.107422,286.962158 
	C118.941597,285.135803 118.893684,284.071289 118.845764,283.006744 
	C118.891434,280.304688 118.937111,277.602661 118.913696,274.455688 
	C118.982468,267.449158 119.120338,260.887482 119.626511,254.079346 
	C128.686310,253.879028 137.377823,253.925217 146.533310,253.901947 
	C155.021255,253.878967 163.045212,253.925430 171.533127,253.902649 
	C173.291382,253.889832 174.585434,253.988052 175.880020,253.995728 
	C182.957855,254.037750 182.957901,254.030106 183.093048,261.567688 
	C183.103378,270.346069 183.041641,278.688843 182.931931,287.495514 
	C178.695618,288.306335 174.512558,288.760284 170.317307,288.966858 
	C166.860397,289.137085 163.389053,289.014191 159.460342,289.094452 
z"/>
<path fill="#000000" opacity="1.000000" stroke="none" 
	d="
M140.361740,243.106995 
	C133.218674,243.180969 126.437828,243.180969 119.342072,243.180969 
	C119.342072,240.684479 119.342072,238.633072 119.342072,235.973328 
	C121.902481,235.973328 124.498413,235.973328 127.545563,235.904007 
	C129.155380,235.890701 130.331604,236.103928 131.469543,235.976151 
	C137.116684,235.342087 142.055313,235.893509 143.254105,242.858200 
	C142.660187,242.899231 141.692062,242.966125 140.361740,243.106995 
z"/>
<path fill="#F79717" opacity="1.000000" stroke="none" 
	d="
M118.669556,283.262634 
	C118.893684,284.071289 118.941597,285.135803 118.917061,286.594604 
	C118.727516,285.832062 118.610428,284.675293 118.669556,283.262634 
z"/>
</svg>